<?xml version="1.0" encoding="UTF-8"?>
<svg xmlns="http://www.w3.org/2000/svg" xmlns:xlink="http://www.w3.org/1999/xlink" width="24px" height="24px" viewBox="0 0 24 24" version="1.1">
<defs>
<radialGradient id="radial0" gradientUnits="userSpaceOnUse" cx="19.38" cy="42.035" fx="19.38" fy="42.035" r="44.899" gradientTransform="matrix(0.5,0,0,0.5,0,0)">
<stop offset="0" style="stop-color:rgb(100%,86.666667%,33.333333%);stop-opacity:1;"/>
<stop offset="0.328" style="stop-color:rgb(100%,32.941176%,24.705882%);stop-opacity:1;"/>
<stop offset="0.348" style="stop-color:rgb(98.823529%,32.156863%,27.058824%);stop-opacity:1;"/>
<stop offset="0.504" style="stop-color:rgb(90.196078%,27.843137%,44.313725%);stop-opacity:1;"/>
<stop offset="0.643" style="stop-color:rgb(83.529412%,24.313725%,56.862745%);stop-opacity:1;"/>
<stop offset="0.761" style="stop-color:rgb(80%,22.352941%,64.313725%);stop-opacity:1;"/>
<stop offset="0.841" style="stop-color:rgb(78.431373%,21.568627%,67.058824%);stop-opacity:1;"/>
</radialGradient>
<radialGradient id="radial1" gradientUnits="userSpaceOnUse" cx="11.786" cy="5.54" fx="11.786" fy="5.54" r="29.813" gradientTransform="matrix(0.5,0,0,0.33315,0,0.9245)">
<stop offset="0" style="stop-color:rgb(25.490196%,40.784314%,78.823529%);stop-opacity:1;"/>
<stop offset="0.999" style="stop-color:rgb(25.490196%,40.784314%,78.823529%);stop-opacity:0;"/>
</radialGradient>
</defs>
<g id="surface1">
<path style=" stroke:none;fill-rule:nonzero;fill:url(#radial0);" d="M 17.007812 20.996094 L 7.007812 21.003906 C 4.808594 21.007812 3.007812 19.207031 3.003906 17.007812 L 2.996094 7.007812 C 2.992188 4.808594 4.789062 3.007812 6.992188 3.003906 L 16.992188 2.996094 C 19.191406 2.992188 20.992188 4.789062 20.996094 6.992188 L 21.003906 16.992188 C 21.007812 19.191406 19.207031 20.992188 17.007812 20.996094 Z M 17.007812 20.996094 "/>
<path style=" stroke:none;fill-rule:nonzero;fill:url(#radial1);" d="M 17.007812 20.996094 L 7.007812 21.003906 C 4.808594 21.007812 3.007812 19.207031 3.003906 17.007812 L 2.996094 7.007812 C 2.992188 4.808594 4.789062 3.007812 6.992188 3.003906 L 16.992188 2.996094 C 19.191406 2.992188 20.992188 4.789062 20.996094 6.992188 L 21.003906 16.992188 C 21.007812 19.191406 19.207031 20.992188 17.007812 20.996094 Z M 17.007812 20.996094 "/>
<path style=" stroke:none;fill-rule:nonzero;fill:rgb(100%,100%,100%);fill-opacity:1;" d="M 12 15.5 C 10.070312 15.5 8.5 13.929688 8.5 12 C 8.5 10.070312 10.070312 8.5 12 8.5 C 13.929688 8.5 15.5 10.070312 15.5 12 C 15.5 13.929688 13.929688 15.5 12 15.5 Z M 12 9.5 C 10.621094 9.5 9.5 10.621094 9.5 12 C 9.5 13.378906 10.621094 14.5 12 14.5 C 13.378906 14.5 14.5 13.378906 14.5 12 C 14.5 10.621094 13.378906 9.5 12 9.5 Z M 12 9.5 "/>
<path style=" stroke:none;fill-rule:nonzero;fill:rgb(100%,100%,100%);fill-opacity:1;" d="M 16.5 8.25 C 16.5 8.664062 16.164062 9 15.75 9 C 15.335938 9 15 8.664062 15 8.25 C 15 7.835938 15.335938 7.5 15.75 7.5 C 16.164062 7.5 16.5 7.835938 16.5 8.25 Z M 16.5 8.25 "/>
<path style=" stroke:none;fill-rule:nonzero;fill:rgb(100%,100%,100%);fill-opacity:1;" d="M 15 18.5 L 9 18.5 C 7.070312 18.5 5.5 16.929688 5.5 15 L 5.5 9 C 5.5 7.070312 7.070312 5.5 9 5.5 L 15 5.5 C 16.929688 5.5 18.5 7.070312 18.5 9 L 18.5 15 C 18.5 16.929688 16.929688 18.5 15 18.5 Z M 9 6.5 C 7.621094 6.5 6.5 7.621094 6.5 9 L 6.5 15 C 6.5 16.378906 7.621094 17.5 9 17.5 L 15 17.5 C 16.378906 17.5 17.5 16.378906 17.5 15 L 17.5 9 C 17.5 7.621094 16.378906 6.5 15 6.5 Z M 9 6.5 "/>
</g>
</svg>
